<svg id="svg" version="1.1" xmlns="http://www.w3.org/2000/svg" xmlns:xlink="http://www.w3.org/1999/xlink" width="400" height="400" viewBox="0, 0, 400,400"><g id="svgg"><path id="path0" d="M138.569 19.817 C 135.970 20.782,134.158 22.352,132.907 24.726 L 131.836 26.758 131.714 36.891 C 131.608 45.651,131.681 47.258,132.250 48.749 C 135.494 57.243,147.470 57.476,150.964 49.113 C 151.853 46.987,151.837 28.288,150.945 25.670 C 149.287 20.806,143.403 18.023,138.569 19.817 M255.259 19.739 C 252.976 20.584,250.908 22.444,249.694 24.747 L 248.633 26.758 248.633 37.500 C 248.633 49.722,248.707 50.061,252.027 52.902 C 256.949 57.115,264.580 55.608,267.712 49.805 C 268.989 47.436,269.011 28.135,267.739 25.386 C 265.539 20.632,259.827 18.048,255.259 19.739 M115.225 36.826 C 108.832 39.006,103.799 44.313,102.161 50.600 C 101.400 53.521,101.244 149.606,101.994 153.203 C 103.391 159.902,108.820 165.937,115.946 168.711 L 118.555 169.727 141.895 169.841 L 165.234 169.956 165.234 173.244 L 165.234 176.532 143.066 176.645 C 116.762 176.779,116.405 176.853,113.066 182.881 L 111.914 184.961 111.808 219.824 L 111.702 254.687 114.752 252.246 C 116.430 250.903,119.240 248.750,120.998 247.461 L 124.193 245.117 124.206 218.066 L 124.219 191.016 200.000 191.016 L 275.781 191.016 275.781 218.070 C 275.781 243.596,275.821 245.149,276.477 245.559 C 276.860 245.798,279.672 247.942,282.727 250.324 L 288.281 254.654 288.281 220.757 C 288.281 179.894,288.528 181.531,281.859 178.125 L 279.182 176.758 256.974 176.645 L 234.766 176.532 234.766 173.242 L 234.766 169.951 258.105 169.839 L 281.445 169.727 284.264 168.696 C 290.977 166.242,296.119 160.692,297.855 154.026 C 298.766 150.528,298.728 53.475,297.814 50.364 C 295.154 41.308,287.798 35.938,278.054 35.938 L 274.219 35.938 274.219 41.726 C 274.219 54.036,268.605 60.937,258.594 60.938 C 248.526 60.938,243.111 54.253,242.936 41.608 L 242.858 35.938 200.185 35.938 L 157.512 35.938 157.358 42.480 C 157.074 54.598,151.759 60.755,141.602 60.734 C 131.304 60.713,125.807 53.756,125.788 40.723 L 125.781 35.938 121.777 35.948 C 118.683 35.955,117.195 36.155,115.225 36.826 M284.252 73.418 C 286.653 74.882,286.523 72.563,286.523 114.093 L 286.523 152.209 285.346 154.115 C 284.487 155.504,283.600 156.317,282.073 157.114 L 279.978 158.209 199.433 158.108 L 118.888 158.008 117.260 156.930 C 116.364 156.338,115.147 155.120,114.554 154.225 L 113.477 152.596 113.371 114.150 L 113.266 75.704 114.790 74.180 L 116.314 72.656 199.661 72.658 C 281.500 72.659,283.030 72.673,284.252 73.418 M162.612 90.776 C 157.305 92.515,153.848 96.523,152.724 102.239 C 151.515 108.382,153.033 112.216,156.674 112.216 C 158.693 112.216,160.936 110.160,160.940 108.307 C 160.954 101.036,170.191 99.123,171.289 106.164 C 172.068 111.158,173.873 112.931,177.261 112.030 C 181.617 110.872,180.827 100.304,175.958 94.616 C 173.075 91.248,166.736 89.424,162.612 90.776 M230.201 90.936 C 223.812 93.219,219.080 101.228,220.114 108.008 C 221.054 114.173,228.011 113.594,228.868 107.278 C 229.556 102.204,234.271 99.956,237.485 103.170 C 238.589 104.274,238.767 104.767,239.272 108.111 C 239.993 112.887,245.427 113.817,247.341 109.492 C 248.981 105.784,247.019 98.352,243.350 94.371 C 240.039 90.779,234.610 89.360,230.201 90.936 M167.218 123.858 C 164.690 126.386,165.678 129.384,170.561 134.003 C 185.865 148.480,210.352 149.581,226.853 136.532 C 233.871 130.983,235.979 126.151,232.555 123.458 C 230.326 121.705,228.871 122.237,224.871 126.270 C 212.010 139.232,188.877 139.253,175.357 126.316 C 170.854 122.007,169.483 121.593,167.218 123.858 M89.461 178.152 C 73.944 182.214,63.928 197.921,68.204 211.487 L 68.877 213.622 70.584 212.447 C 84.306 203.007,104.648 216.258,99.005 230.962 C 98.767 231.583,98.975 231.565,101.210 230.765 L 103.679 229.883 104.658 226.953 C 105.630 224.046,105.640 223.885,105.879 206.055 C 106.136 186.907,106.135 186.914,108.237 182.747 L 109.354 180.533 106.532 179.363 C 101.281 177.185,94.886 176.731,89.461 178.152 M297.461 178.086 C 295.957 178.498,293.819 179.260,292.710 179.778 L 290.692 180.721 291.459 181.931 C 293.868 185.736,293.912 186.134,294.151 205.859 C 294.369 223.902,294.377 224.043,295.346 226.953 L 296.321 229.883 298.790 230.765 C 300.732 231.460,301.211 231.526,301.039 231.076 C 295.484 216.601,315.913 202.909,329.089 212.276 L 331.018 213.648 331.530 212.430 C 335.805 202.263,328.593 186.363,316.992 180.384 C 311.373 177.487,303.169 176.522,297.461 178.086 M165.430 203.673 C 160.944 205.653,161.148 210.283,165.944 215.381 C 174.748 224.739,174.975 235.205,166.591 245.184 C 162.316 250.272,158.329 256.780,156.282 262.012 L 155.480 264.063 156.549 264.067 C 168.907 264.121,176.926 278.456,169.582 287.366 L 168.433 288.761 169.730 290.461 C 175.269 297.717,172.561 307.164,164.105 310.082 L 162.192 310.742 162.899 313.516 C 163.665 316.518,166.794 323.065,170.192 328.775 C 173.051 333.581,173.506 335.156,172.766 337.695 C 171.401 342.384,171.895 342.870,179.297 344.122 C 190.571 346.030,208.612 346.034,220.280 344.130 C 227.718 342.917,228.535 342.288,227.251 338.762 C 226.138 335.706,226.484 334.263,229.646 328.775 C 234.097 321.050,236.670 315.440,237.295 312.098 C 237.545 310.762,237.520 310.732,235.643 310.068 C 227.179 307.074,224.476 295.426,230.895 289.616 C 231.605 288.973,231.593 288.916,230.464 287.630 C 222.961 279.085,229.536 265.671,241.943 264.213 C 244.595 263.901,244.588 264.039,242.234 259.144 C 239.992 254.482,236.507 249.184,233.231 245.458 C 224.775 235.838,224.824 224.492,233.358 215.822 C 238.585 210.512,239.065 205.893,234.600 203.865 C 232.515 202.918,167.549 202.737,165.430 203.673 M219.384 214.551 C 219.036 215.034,218.308 216.265,217.767 217.285 L 216.784 219.141 196.916 219.141 L 177.048 219.141 176.556 217.953 C 176.285 217.300,175.560 216.069,174.944 215.218 L 173.823 213.672 196.920 213.672 L 220.017 213.672 219.384 214.551 M77.148 215.776 C 74.646 216.384,71.166 218.276,70.401 219.444 C 69.877 220.245,53.125 256.137,53.125 256.460 C 53.125 256.530,53.970 256.019,55.003 255.324 C 61.141 251.193,70.361 251.428,77.810 255.905 L 80.899 257.761 82.858 253.588 C 93.979 229.901,93.921 230.038,94.074 227.113 C 94.464 219.686,85.569 213.728,77.148 215.776 M316.211 215.763 C 309.653 217.462,305.558 222.061,305.959 227.278 C 306.129 229.498,317.821 256.232,319.243 257.655 C 319.339 257.751,320.475 257.123,321.767 256.260 C 328.965 251.453,338.235 251.144,345.076 255.482 C 346.459 256.359,346.810 256.468,346.523 255.931 C 346.314 255.541,342.517 247.323,338.086 237.669 C 333.654 228.016,329.779 219.733,329.475 219.263 C 327.783 216.653,320.347 214.691,316.211 215.763 M183.591 239.937 C 183.609 241.953,179.724 248.482,173.408 257.053 L 170.082 261.567 168.342 260.678 C 167.385 260.188,166.382 259.783,166.113 259.777 C 165.010 259.752,166.214 257.787,173.061 248.438 C 174.555 246.396,176.262 243.536,176.854 242.080 L 177.930 239.433 180.759 239.541 C 182.315 239.600,183.590 239.778,183.591 239.937 M136.719 245.118 C 134.909 245.712,131.014 248.414,118.164 257.992 C 105.787 267.217,104.317 270.310,104.794 286.111 C 105.292 302.592,108.636 306.035,134.961 317.175 C 143.145 320.638,145.076 321.255,147.656 321.234 C 152.598 321.192,156.402 317.256,155.672 312.939 L 155.419 311.442 151.049 311.220 C 142.771 310.800,133.196 308.868,132.446 307.466 C 130.319 303.492,132.956 302.607,142.409 304.123 C 159.832 306.917,166.406 305.380,166.406 298.515 C 166.406 293.931,164.180 292.593,155.811 292.150 C 134.056 290.997,127.430 289.293,129.242 285.317 C 130.086 283.464,130.908 283.403,139.919 284.527 C 159.289 286.942,160.451 286.968,163.327 285.047 C 167.857 282.021,166.438 274.717,160.751 271.788 C 159.491 271.138,135.143 268.332,127.710 267.979 C 126.913 267.941,125.781 266.217,125.781 265.039 C 125.781 262.075,127.072 261.765,136.152 262.545 L 141.249 262.983 143.237 261.976 C 153.534 256.758,147.647 241.535,136.719 245.118 M258.201 244.873 C 251.149 247.182,248.954 254.821,253.911 259.800 C 256.759 262.660,258.433 263.110,264.184 262.558 C 272.645 261.745,273.984 262.084,273.984 265.039 C 273.984 267.753,273.457 267.934,262.500 268.969 C 238.194 271.265,239.646 271.039,237.217 272.892 C 232.683 276.351,232.625 283.056,237.109 285.547 C 239.617 286.940,244.975 286.680,262.584 284.312 C 269.404 283.395,270.387 283.567,270.942 285.776 C 271.650 288.596,269.857 289.566,262.080 290.572 C 253.076 291.737,252.246 291.813,244.818 292.151 C 235.362 292.581,233.594 293.638,233.594 298.862 C 233.594 305.257,239.099 306.695,255.116 304.486 C 266.632 302.897,265.700 302.944,266.721 303.908 C 270.667 307.634,263.796 310.436,248.633 311.283 L 244.336 311.523 244.218 313.789 C 243.895 320.013,250.031 322.737,258.008 319.910 C 272.883 314.637,286.833 307.344,290.422 302.965 C 296.888 295.073,296.965 273.240,290.555 265.146 C 289.190 263.423,267.671 247.138,264.892 245.724 C 263.033 244.780,259.759 244.363,258.201 244.873 M61.914 258.609 C 46.094 261.852,39.891 282.004,50.907 294.364 C 56.160 300.258,64.504 302.644,71.997 300.397 L 73.486 299.950 71.985 298.863 C 60.236 290.352,60.970 269.476,73.260 262.643 L 75.462 261.418 73.244 260.369 C 69.429 258.565,65.277 257.920,61.914 258.609 M331.407 258.761 C 329.316 259.236,325.000 261.076,325.000 261.493 C 325.000 261.576,325.923 262.166,327.051 262.803 C 338.956 269.532,339.524 290.525,328.028 298.854 L 326.539 299.932 328.016 300.454 C 328.949 300.784,331.300 300.977,334.405 300.977 L 339.318 300.977 342.651 299.325 C 349.998 295.683,354.688 288.016,354.688 279.644 C 354.688 266.544,343.063 256.117,331.407 258.761 M91.797 263.281 C 80.690 263.476,80.659 263.479,78.710 264.508 C 66.603 270.901,66.658 291.106,78.800 297.222 C 81.149 298.405,84.348 299.054,92.383 299.976 C 96.250 300.420,100.039 300.867,100.802 300.970 L 102.190 301.157 101.118 297.942 C 97.785 287.952,98.111 275.745,101.968 266.112 C 102.616 264.495,103.097 263.152,103.038 263.129 C 102.978 263.105,97.920 263.174,91.797 263.281 M297.124 263.867 C 297.256 264.297,297.586 265.088,297.858 265.625 C 301.744 273.322,302.163 287.315,298.821 297.783 L 297.720 301.230 299.153 301.006 C 299.941 300.882,303.750 300.417,307.617 299.971 C 318.787 298.685,321.519 297.840,324.788 294.666 C 333.229 286.468,331.592 270.050,321.792 264.621 L 319.727 263.477 308.305 263.281 C 297.019 263.088,296.886 263.095,297.124 263.867 M154.492 332.847 C 118.353 335.518,101.920 340.988,112.704 346.756 C 134.234 358.271,246.291 359.755,281.581 348.993 C 301.957 342.780,284.421 335.165,244.336 332.820 C 240.469 332.594,236.786 332.368,236.152 332.318 C 235.193 332.242,234.803 332.505,233.834 333.884 L 232.668 335.542 233.326 337.629 C 236.555 347.871,225.469 352.020,196.399 351.450 C 171.849 350.968,163.716 347.217,166.582 337.695 C 167.011 336.269,167.043 335.615,166.714 334.996 C 166.058 333.764,164.726 332.025,164.477 332.078 C 164.357 332.104,159.863 332.450,154.492 332.847 M107.829 355.929 C 107.848 362.905,108.108 363.690,111.113 365.826 C 132.322 380.905,263.160 381.334,288.005 366.406 C 291.976 364.020,292.188 363.506,292.188 356.219 L 292.188 350.053 290.251 351.356 C 279.475 358.608,227.240 363.844,182.617 362.145 C 145.376 360.727,113.664 355.800,108.496 350.628 C 107.845 349.977,107.813 350.229,107.829 355.929 " stroke="none" fill="#12120f" fill-rule="evenodd"></path><path id="path1" d="M0.000 200.000 L 0.000 400.000 200.000 400.000 L 400.000 400.000 400.000 200.000 L 400.000 0.000 200.000 0.000 L 0.000 0.000 0.000 200.000 M145.898 20.072 C 148.291 21.203,149.679 22.637,150.858 25.195 C 152.215 28.141,152.253 47.317,150.907 49.831 C 146.644 57.795,134.958 56.977,131.954 48.504 C 130.953 45.681,131.255 27.953,132.344 25.586 C 134.883 20.071,140.802 17.662,145.898 20.072 M262.813 20.152 C 265.253 21.367,267.317 23.668,268.143 26.092 C 269.109 28.927,269.012 47.241,268.019 49.414 C 264.356 57.435,252.127 57.204,249.015 49.056 C 247.942 46.245,248.323 26.946,249.495 24.755 C 252.148 19.796,258.023 17.765,262.813 20.152 M126.200 42.383 C 126.582 53.722,130.300 58.954,139.136 60.582 C 150.227 62.626,157.390 54.614,157.414 40.137 L 157.422 35.547 200.150 35.547 L 242.879 35.547 243.056 42.090 C 243.396 54.594,248.425 60.607,258.594 60.668 C 268.639 60.728,273.799 54.560,274.133 42.090 L 274.309 35.547 277.096 35.554 C 288.109 35.580,296.734 42.368,298.430 52.344 C 298.733 54.130,298.827 69.362,298.747 103.711 L 298.633 152.539 297.760 155.106 C 295.383 162.095,289.319 167.686,282.328 169.334 C 280.322 169.807,275.833 169.911,257.324 169.916 L 234.766 169.922 234.766 173.242 L 234.766 176.563 256.626 176.563 C 282.922 176.563,283.441 176.668,287.014 182.748 L 288.086 184.570 288.192 219.654 L 288.298 254.738 283.895 251.338 C 281.473 249.469,278.657 247.311,277.637 246.542 L 275.781 245.146 275.781 218.081 L 275.781 191.016 200.000 191.016 L 124.219 191.016 124.218 218.066 L 124.217 245.117 118.065 249.831 L 111.914 254.545 111.814 220.009 C 111.719 186.856,111.744 185.407,112.454 183.802 C 113.530 181.370,115.772 179.084,118.297 177.844 L 120.508 176.758 142.871 176.648 L 165.234 176.538 165.234 173.230 L 165.234 169.922 142.398 169.922 L 119.561 169.922 116.650 168.997 C 111.076 167.228,106.105 162.993,103.545 157.834 C 101.257 153.224,101.367 156.047,101.367 101.953 L 101.367 52.148 102.276 49.609 C 105.439 40.778,113.313 35.443,122.852 35.668 L 125.977 35.742 126.200 42.383 M116.163 73.218 C 113.494 74.379,113.672 71.466,113.672 113.999 C 113.672 157.125,113.450 153.783,116.477 156.210 C 119.048 158.270,114.711 158.168,199.805 158.184 C 283.949 158.200,280.822 158.274,283.351 156.188 C 286.514 153.579,286.310 156.485,286.320 113.945 C 286.329 72.205,286.471 74.541,283.845 73.295 C 281.975 72.407,118.198 72.332,116.163 73.218 M170.865 91.037 C 176.262 93.056,180.469 100.061,180.469 107.027 C 180.469 113.759,172.165 114.206,171.373 107.518 C 170.500 100.145,162.518 99.761,161.262 107.031 C 159.712 115.999,152.015 114.083,152.426 104.833 C 152.893 94.331,161.820 87.652,170.865 91.037 M239.567 91.394 C 247.160 95.024,251.017 108.340,245.519 111.943 C 242.613 113.847,239.507 111.293,238.860 106.469 C 237.963 99.776,228.963 100.851,228.915 107.657 C 228.871 113.903,220.449 113.774,220.009 107.520 C 219.187 95.847,230.085 86.861,239.567 91.394 M171.231 122.634 C 171.764 122.837,173.780 124.583,175.711 126.513 C 188.076 138.878,211.771 138.867,224.378 126.491 C 229.301 121.658,231.052 121.271,233.559 124.459 C 237.545 129.526,224.967 140.669,211.004 144.441 C 195.175 148.716,172.648 141.042,166.351 129.230 C 164.433 125.631,167.656 121.275,171.231 122.634 M100.536 177.541 C 103.740 178.100,108.770 179.807,109.184 180.475 C 109.289 180.646,108.930 181.646,108.384 182.697 C 106.363 186.593,106.260 187.653,106.255 204.518 C 106.250 220.601,106.101 222.657,104.590 227.430 L 103.760 230.056 101.413 230.848 C 98.547 231.816,98.311 231.825,98.781 230.948 C 99.561 229.490,99.929 226.002,99.551 223.651 C 97.571 211.357,80.677 205.072,70.368 212.794 C 69.302 213.592,68.991 213.675,68.708 213.236 C 66.968 210.537,66.856 201.821,68.501 197.070 C 73.101 183.783,87.165 175.210,100.536 177.541 M310.938 177.962 C 324.861 181.136,336.006 198.585,332.124 211.133 C 331.304 213.784,331.119 213.908,329.632 212.792 C 316.799 203.165,295.841 215.866,300.948 230.176 C 301.555 231.876,301.661 231.835,298.913 230.968 C 294.569 229.599,294.141 227.458,294.138 207.039 C 294.134 187.997,293.971 186.746,290.727 180.821 C 290.588 180.566,294.285 178.864,296.503 178.164 C 300.485 176.906,305.967 176.829,310.938 177.962 M233.501 203.329 C 239.024 204.969,239.228 210.030,233.983 215.280 C 224.832 224.440,224.638 235.049,233.431 245.508 C 237.802 250.706,241.764 257.070,243.721 262.037 L 244.462 263.915 241.753 264.380 C 229.378 266.502,223.367 278.283,230.165 287.090 L 231.507 288.828 230.004 290.973 C 225.148 297.905,227.416 306.339,235.021 309.635 L 237.575 310.742 237.339 312.484 C 237.027 314.776,234.053 321.270,230.251 327.957 C 226.804 334.020,226.201 336.475,227.528 339.042 C 229.007 341.902,227.597 342.999,221.006 344.115 C 208.433 346.245,191.093 346.248,178.570 344.122 C 172.024 343.011,171.270 342.186,172.673 337.680 C 173.392 335.370,172.948 333.865,170.076 328.878 C 165.374 320.716,162.882 315.260,162.390 312.053 L 162.172 310.629 164.453 309.797 C 172.381 306.906,174.874 298.250,169.887 290.924 L 168.362 288.684 169.916 286.631 C 176.263 278.245,170.081 266.549,158.177 264.421 C 155.024 263.858,155.073 264.182,157.397 259.180 C 159.430 254.805,162.757 249.603,166.013 245.709 C 174.921 235.053,174.830 224.578,165.749 215.319 C 160.517 209.984,161.035 204.508,166.904 203.114 C 169.572 202.480,231.314 202.680,233.501 203.329 M174.219 214.039 C 174.219 214.242,174.401 214.520,174.624 214.658 C 174.847 214.795,175.567 215.861,176.224 217.024 L 177.418 219.141 197.060 219.141 L 216.702 219.141 217.194 217.953 C 217.465 217.300,218.190 216.069,218.806 215.218 L 219.927 213.672 197.073 213.672 C 183.053 213.672,174.219 213.814,174.219 214.039 M84.433 215.794 C 91.781 218.024,95.779 223.691,94.017 229.376 C 93.197 232.020,81.123 257.800,80.701 257.807 C 80.506 257.810,79.758 257.363,79.039 256.814 C 72.319 251.689,61.820 251.109,54.924 255.482 C 52.691 256.898,52.666 256.900,53.326 255.566 C 53.618 254.976,57.473 246.682,61.893 237.137 C 66.312 227.591,70.234 219.443,70.608 219.030 C 73.377 215.971,79.947 214.433,84.433 215.794 M325.789 216.706 C 329.444 218.453,329.385 218.358,336.446 233.789 C 339.985 241.523,343.780 249.766,344.878 252.105 C 345.976 254.445,346.875 256.404,346.875 256.459 C 346.875 256.514,345.416 255.808,343.633 254.890 C 336.423 251.180,328.574 251.740,321.687 256.455 L 319.227 258.139 312.473 243.647 C 306.097 229.966,305.718 229.023,305.705 226.785 C 305.655 218.292,317.096 212.550,325.789 216.706 M177.744 240.405 C 176.583 243.457,175.013 246.062,171.176 251.297 C 168.842 254.481,166.637 257.588,166.275 258.200 L 165.617 259.314 167.829 260.327 C 169.045 260.884,170.085 261.293,170.138 261.236 C 173.289 257.882,181.511 245.317,182.835 241.831 L 183.591 239.844 181.737 239.838 C 180.717 239.835,179.490 239.728,179.011 239.599 C 178.320 239.414,178.057 239.581,177.744 240.405 M144.382 245.925 C 149.738 249.236,150.323 257.043,145.492 260.728 C 142.498 263.012,142.041 263.089,134.740 262.543 C 127.374 261.993,126.465 262.174,125.933 264.292 C 125.121 267.527,125.692 267.693,143.164 269.332 C 159.825 270.894,161.049 271.156,163.515 273.693 C 167.700 277.999,166.668 284.189,161.433 286.188 C 159.435 286.951,155.766 286.694,140.449 284.716 C 130.288 283.404,129.644 283.497,129.367 286.306 C 129.038 289.641,134.175 290.655,159.783 292.310 C 168.805 292.893,169.267 303.496,160.358 305.472 C 157.582 306.087,148.106 305.304,139.063 303.711 C 134.634 302.931,134.111 302.963,132.990 304.084 C 129.531 307.543,136.257 310.144,151.460 311.225 L 155.664 311.523 155.781 313.555 C 156.023 317.729,152.269 321.452,147.795 321.476 C 141.950 321.507,115.958 309.448,110.652 304.243 C 105.240 298.936,102.938 286.302,105.228 274.482 C 106.811 266.312,107.266 265.802,123.969 253.550 C 136.041 244.695,136.402 244.496,140.095 244.655 C 141.962 244.735,142.915 245.018,144.382 245.925 M264.886 245.605 C 267.743 247.063,288.113 262.392,290.197 264.653 C 293.933 268.706,295.115 273.492,295.115 284.570 C 295.114 301.369,291.797 305.554,271.289 314.627 C 259.509 319.839,253.747 321.746,251.070 321.318 C 246.564 320.598,243.354 316.893,243.927 313.075 L 244.171 311.444 248.355 311.222 C 258.097 310.706,266.829 308.776,267.388 307.013 C 268.535 303.400,266.829 302.942,257.413 304.335 C 240.319 306.866,234.266 305.725,233.378 299.805 C 232.544 294.243,235.223 292.437,244.923 292.022 C 260.969 291.336,269.794 289.721,270.696 287.307 C 271.948 283.952,270.008 283.495,259.989 284.780 C 246.896 286.459,240.547 286.936,238.691 286.380 C 232.946 284.659,231.818 278.154,236.476 273.610 C 239.135 271.016,239.456 270.944,254.883 269.525 C 271.872 267.963,271.758 267.978,272.891 267.087 C 274.215 266.045,274.078 263.885,272.619 262.800 C 271.649 262.079,271.342 262.068,265.527 262.542 C 258.358 263.126,257.285 262.924,254.493 260.466 C 246.258 253.217,255.081 240.603,264.886 245.605 M69.260 258.786 C 71.321 259.322,75.391 261.126,75.391 261.503 C 75.391 261.591,74.556 262.072,73.535 262.570 C 61.093 268.648,60.337 289.849,72.240 298.915 L 73.581 299.937 71.263 300.632 C 58.316 304.516,45.166 293.747,45.211 279.297 C 45.253 266.125,57.461 255.713,69.260 258.786 M339.309 258.746 C 364.707 265.509,356.002 306.087,330.240 301.026 C 326.111 300.214,326.041 300.165,327.540 299.118 C 339.542 290.728,338.889 268.516,326.465 262.541 C 324.159 261.432,324.148 261.497,326.855 260.254 C 331.211 258.256,335.511 257.735,339.309 258.746 M102.503 265.083 C 97.883 275.529,97.745 289.934,102.163 300.546 C 102.516 301.395,102.769 301.408,91.016 299.965 C 80.868 298.719,78.452 297.918,74.945 294.637 C 66.968 287.175,68.119 271.492,77.095 265.359 C 80.369 263.121,81.503 262.948,93.045 262.918 L 103.473 262.891 102.503 265.083 M321.137 264.162 C 333.265 270.118,333.432 291.154,321.399 297.308 C 318.809 298.632,298.625 301.880,297.843 301.098 C 297.758 301.013,298.104 299.632,298.613 298.030 C 301.873 287.763,301.790 276.771,298.382 267.353 C 297.728 265.544,297.033 263.965,296.838 263.844 C 295.456 262.990,297.239 262.845,307.715 262.961 L 318.945 263.086 321.137 264.162 M166.013 333.652 C 167.344 335.489,167.400 335.902,166.613 338.086 C 163.337 347.178,173.363 351.278,199.023 351.340 C 224.950 351.404,235.716 347.680,233.565 339.394 C 232.578 335.595,232.631 334.948,234.044 333.460 L 235.352 332.083 241.016 332.435 C 269.161 334.183,284.695 337.145,289.165 341.616 C 303.544 355.994,169.163 362.366,120.410 349.617 C 94.933 342.954,116.593 334.193,163.767 332.079 C 164.602 332.042,165.098 332.390,166.013 333.652 M109.453 351.108 C 132.027 365.993,274.444 365.503,291.504 350.481 C 292.152 349.910,292.187 350.223,292.187 356.452 L 292.188 363.025 290.518 364.618 C 279.071 375.545,203.756 381.394,152.157 375.364 C 125.229 372.217,111.909 368.675,108.716 363.814 C 108.125 362.914,107.170 349.994,107.695 349.999 C 107.738 350.000,108.529 350.498,109.453 351.108 " stroke="none" fill="#fbfbf8" fill-rule="evenodd"></path><path id="path2" d="M131.414 37.695 C 131.414 41.992,131.471 43.803,131.541 41.720 C 131.611 39.637,131.611 36.121,131.542 33.907 C 131.472 31.694,131.414 33.398,131.414 37.695 M158.887 35.829 C 159.585 35.916,160.728 35.916,161.426 35.829 C 162.124 35.743,161.553 35.672,160.156 35.672 C 158.760 35.672,158.188 35.743,158.887 35.829 M125.924 40.820 C 125.925 42.969,125.991 43.798,126.070 42.663 C 126.149 41.528,126.148 39.770,126.068 38.756 C 125.988 37.743,125.923 38.672,125.924 40.820 M298.627 100.781 C 298.627 126.885,298.673 137.563,298.730 124.512 C 298.787 111.460,298.787 90.103,298.730 77.051 C 298.673 63.999,298.627 74.678,298.627 100.781 M101.361 101.758 C 101.361 127.969,101.408 138.634,101.465 125.458 C 101.522 112.282,101.522 90.837,101.465 77.802 C 101.408 64.767,101.361 75.547,101.361 101.758 M113.469 113.867 C 113.469 134.492,113.516 142.872,113.574 132.490 C 113.632 122.107,113.632 105.232,113.574 94.990 C 113.516 84.747,113.469 93.242,113.469 113.867 M198.145 135.816 C 198.521 135.914,199.136 135.914,199.512 135.816 C 199.888 135.718,199.580 135.638,198.828 135.638 C 198.076 135.638,197.769 135.718,198.145 135.816 M106.037 205.859 C 106.037 214.346,106.089 217.817,106.152 213.574 C 106.215 209.331,106.215 202.388,106.152 198.145 C 106.089 193.901,106.037 197.373,106.037 205.859 M183.887 203.027 C 192.749 203.086,207.251 203.086,216.113 203.027 C 224.976 202.969,217.725 202.921,200.000 202.921 C 182.275 202.921,175.024 202.969,183.887 203.027 M305.559 226.563 C 305.559 227.314,305.640 227.622,305.738 227.246 C 305.836 226.870,305.836 226.255,305.738 225.879 C 305.640 225.503,305.559 225.811,305.559 226.563 M51.343 264.160 L 50.195 265.430 51.465 264.282 C 52.648 263.213,52.914 262.891,52.612 262.891 C 52.545 262.891,51.974 263.462,51.343 264.160 M156.348 305.749 C 156.938 305.838,157.905 305.838,158.496 305.749 C 159.087 305.659,158.604 305.586,157.422 305.586 C 156.240 305.586,155.757 305.659,156.348 305.749 M242.480 305.751 C 243.179 305.838,244.321 305.838,245.020 305.751 C 245.718 305.665,245.146 305.594,243.750 305.594 C 242.354 305.594,241.782 305.665,242.480 305.751 M243.841 314.063 C 243.841 314.814,243.921 315.122,244.019 314.746 C 244.118 314.370,244.118 313.755,244.019 313.379 C 243.921 313.003,243.841 313.311,243.841 314.063 M191.895 356.530 C 192.485 356.619,193.452 356.619,194.043 356.530 C 194.634 356.440,194.150 356.367,192.969 356.367 C 191.787 356.367,191.304 356.440,191.895 356.530 M208.887 356.526 C 209.370 356.619,210.161 356.619,210.645 356.526 C 211.128 356.433,210.732 356.356,209.766 356.356 C 208.799 356.356,208.403 356.433,208.887 356.526 M190.532 362.386 C 191.018 362.479,191.721 362.476,192.094 362.378 C 192.468 362.280,192.070 362.204,191.211 362.208 C 190.352 362.212,190.046 362.292,190.532 362.386 M208.301 362.379 C 208.677 362.477,209.292 362.477,209.668 362.379 C 210.044 362.280,209.736 362.200,208.984 362.200 C 208.232 362.200,207.925 362.280,208.301 362.379 M189.551 377.613 C 189.927 377.711,190.542 377.711,190.918 377.613 C 191.294 377.515,190.986 377.434,190.234 377.434 C 189.482 377.434,189.175 377.515,189.551 377.613 M210.449 377.619 C 210.933 377.713,211.724 377.713,212.207 377.619 C 212.690 377.526,212.295 377.450,211.328 377.450 C 210.361 377.450,209.966 377.526,210.449 377.619 " stroke="none" fill="#9b9a97" fill-rule="evenodd"></path><path id="path3" d="M151.729 37.891 C 151.729 42.725,151.786 44.702,151.854 42.285 C 151.923 39.868,151.923 35.913,151.854 33.496 C 151.786 31.079,151.729 33.057,151.729 37.891 M286.515 114.844 C 286.515 134.502,286.563 142.544,286.621 132.715 C 286.679 122.886,286.679 106.802,286.621 96.973 C 286.563 87.144,286.515 95.186,286.515 114.844 M88.402 263.183 C 91.153 263.250,95.548 263.250,98.167 263.182 C 100.787 263.115,98.535 263.060,93.164 263.060 C 87.793 263.060,85.650 263.115,88.402 263.183 M302.051 263.183 C 304.790 263.250,309.272 263.250,312.012 263.183 C 314.751 263.115,312.510 263.060,307.031 263.060 C 301.553 263.060,299.312 263.115,302.051 263.183 M333.691 301.441 C 334.067 301.539,334.683 301.539,335.059 301.441 C 335.435 301.343,335.127 301.263,334.375 301.263 C 333.623 301.263,333.315 301.343,333.691 301.441 M198.353 356.538 C 199.488 356.618,201.246 356.617,202.259 356.537 C 203.272 356.456,202.344 356.392,200.195 356.393 C 198.047 356.394,197.218 356.459,198.353 356.538 M212.016 362.386 C 212.502 362.479,213.205 362.476,213.579 362.378 C 213.952 362.280,213.555 362.204,212.695 362.208 C 211.836 362.212,211.530 362.292,212.016 362.386 M193.457 377.624 C 194.048 377.713,195.015 377.713,195.605 377.624 C 196.196 377.534,195.713 377.461,194.531 377.461 C 193.350 377.461,192.866 377.534,193.457 377.624 M205.762 377.619 C 206.245 377.713,207.036 377.713,207.520 377.619 C 208.003 377.526,207.607 377.450,206.641 377.450 C 205.674 377.450,205.278 377.526,205.762 377.619 " stroke="none" fill="#737473" fill-rule="evenodd"></path><path id="path4" d="M163.384 35.827 C 163.978 35.917,164.857 35.915,165.337 35.822 C 165.818 35.729,165.332 35.656,164.258 35.659 C 163.184 35.662,162.791 35.737,163.384 35.827 M173.926 35.831 C 174.731 35.916,176.050 35.916,176.855 35.831 C 177.661 35.747,177.002 35.678,175.391 35.678 C 173.779 35.678,173.120 35.747,173.926 35.831 M184.838 35.839 C 188.423 35.903,194.400 35.904,198.120 35.839 C 201.839 35.775,198.906 35.722,191.602 35.722 C 184.297 35.722,181.253 35.775,184.838 35.839 M205.962 35.827 C 206.556 35.917,207.435 35.915,207.916 35.822 C 208.396 35.729,207.910 35.656,206.836 35.659 C 205.762 35.662,205.369 35.737,205.962 35.827 M210.254 35.816 C 210.630 35.914,211.245 35.914,211.621 35.816 C 211.997 35.718,211.689 35.638,210.938 35.638 C 210.186 35.638,209.878 35.718,210.254 35.816 M213.188 35.823 C 213.674 35.917,214.377 35.913,214.751 35.815 C 215.124 35.717,214.727 35.641,213.867 35.645 C 213.008 35.650,212.702 35.730,213.188 35.823 M217.886 35.836 C 219.238 35.913,221.347 35.912,222.574 35.835 C 223.801 35.758,222.695 35.695,220.117 35.696 C 217.539 35.697,216.535 35.760,217.886 35.836 M228.982 35.838 C 231.280 35.907,235.147 35.907,237.576 35.839 C 240.005 35.770,238.125 35.714,233.398 35.713 C 228.672 35.713,226.685 35.769,228.982 35.838 " stroke="none" fill="#7c7c74" fill-rule="evenodd"></path></g></svg>